<svg width="40" height="40" viewBox="0 0 40 50" fill="none" xmlns="http://www.w3.org/2000/svg">
<path d="M33.4061 26.0999C33.4754 33.5344 39.9283 36.0104 40 36.0399C39.9455 36.2143 38.9683 39.5658 36.5999 43.0273C34.5532 46.0202 32.4275 49.0017 29.0795 49.0636C25.7879 49.124 24.7322 47.1127 20.9734 47.1127C17.2147 47.1127 16.0386 49.0017 12.9249 49.124C9.69327 49.2464 7.23247 45.888 5.16813 42.9065C0.949068 36.8068 -2.27468 25.6711 2.05444 18.1541C4.20475 14.4204 8.04799 12.0574 12.2194 11.9969C15.393 11.936 18.3878 14.1315 20.3254 14.1315C22.263 14.1315 25.9034 11.4914 29.7299 11.879C31.332 11.9458 35.8306 12.5275 38.7153 16.7525C38.4829 16.8964 33.3506 19.8843 33.4061 26.0999ZM27.2239 7.84418C28.9399 5.76707 30.0944 2.87641 29.7785 0C27.3064 0.0982549 24.3161 1.64774 22.5426 3.72337C20.9528 5.56123 19.5605 8.50298 19.9388 11.3224C22.6953 11.5356 25.5108 9.92178 27.2264 7.84418" fill="black"/>
</svg>
