<svg width="30" height="30" viewBox="0 0 45 45" fill="none" xmlns="http://www.w3.org/2000/svg">
<g clip-path="url(#clip0_1_23)">
<path d="M24.813 0.00276825C26.4548 -0.00353193 28.0967 0.012969 29.738 0.0522659L30.1745 0.068015C30.6785 0.0860138 31.1757 0.108513 31.7765 0.135512C34.1703 0.248006 35.8037 0.625987 37.2369 1.18171C38.7218 1.75318 39.9728 2.52714 41.2237 3.77807C42.3675 4.90213 43.2527 6.26183 43.8178 7.76265C44.3735 9.19583 44.7515 10.8314 44.864 13.2254C44.891 13.8238 44.9135 14.3233 44.9315 14.8273L44.945 15.2637C44.985 16.9043 45.0023 18.5454 44.9968 20.1865L44.999 21.8649V24.8123C45.0045 26.4541 44.9873 28.0959 44.9473 29.7373L44.9338 30.1737C44.9158 30.6777 44.8933 31.175 44.8663 31.7756C44.7538 34.1696 44.3713 35.8029 43.8178 37.2361C43.2545 38.7385 42.3691 40.0993 41.2237 41.2229C40.0987 42.3666 38.7383 43.2518 37.2369 43.817C35.8037 44.3728 34.1703 44.7507 31.7765 44.8632C31.1757 44.8902 30.6785 44.9127 30.1745 44.9307L29.738 44.9442C28.0967 44.9842 26.4548 45.0014 24.813 44.996L23.1346 44.9982H20.1895C18.5477 45.0038 16.9058 44.9865 15.2645 44.9465L14.828 44.933C14.294 44.9136 13.76 44.8911 13.2261 44.8655C10.8323 44.753 9.19883 44.3705 7.7634 43.817C6.26201 43.2531 4.90208 42.3677 3.77885 41.2229C2.63377 40.0986 1.74771 38.738 1.18249 37.2361C0.626766 35.8029 0.248786 34.1696 0.136291 31.7756C0.111234 31.2418 0.0887348 30.7078 0.0687947 30.1737L0.0575456 29.7373C0.0160657 28.0959 -0.00268534 26.4541 0.00129818 24.8123V20.1865C-0.00498117 18.5454 0.0115198 16.9043 0.0507959 15.2637L0.066545 14.8273C0.0845438 14.3233 0.107043 13.8238 0.134042 13.2254C0.246536 10.8292 0.624516 9.19808 1.18024 7.76265C1.7458 6.26109 2.63358 4.90177 3.7811 3.78032C4.90356 2.63458 6.26264 1.74772 7.7634 1.18171C9.19883 0.625987 10.83 0.248006 13.2261 0.135512L14.828 0.068015L15.2645 0.0567659C16.9051 0.0153068 18.5462 -0.00344424 20.1872 0.000518527L24.813 0.00276825ZM22.5002 11.2522C21.0096 11.2311 19.5298 11.5065 18.1466 12.0623C16.7634 12.6182 15.5045 13.4433 14.443 14.4899C13.3814 15.5365 12.5386 16.7837 11.9633 18.1588C11.3879 19.534 11.0916 21.0098 11.0916 22.5005C11.0916 23.9912 11.3879 25.467 11.9633 26.8422C12.5386 28.2174 13.3814 29.4645 14.443 30.5111C15.5045 31.5577 16.7634 32.3828 18.1466 32.9387C19.5298 33.4945 21.0096 33.7699 22.5002 33.7488C25.4837 33.7488 28.345 32.5636 30.4547 30.4539C32.5643 28.3442 33.7496 25.4829 33.7496 22.4994C33.7496 19.5158 32.5643 16.6545 30.4547 14.5448C28.345 12.4352 25.4837 11.2522 22.5002 11.2522ZM22.5002 15.752C23.3968 15.7355 24.2876 15.8978 25.1208 16.2294C25.954 16.5611 26.7127 17.0555 27.3527 17.6836C27.9926 18.3118 28.501 19.0612 28.8481 19.8881C29.1952 20.7149 29.374 21.6026 29.3741 22.4993C29.3743 23.3961 29.1958 24.2839 28.8489 25.1108C28.5021 25.9379 27.994 26.6874 27.3542 27.3158C26.7145 27.9442 25.9559 28.4388 25.1229 28.7707C24.2898 29.1026 23.399 29.2652 22.5024 29.249C20.7123 29.249 18.9955 28.5379 17.7297 27.2721C16.4639 26.0063 15.7528 24.2895 15.7528 22.4994C15.7528 20.7092 16.4639 18.9925 17.7297 17.7266C18.9955 16.4609 20.7123 15.7497 22.5024 15.7497L22.5002 15.752ZM34.3121 7.8774C33.5862 7.90643 32.8998 8.2152 32.3965 8.739C31.8932 9.2628 31.6121 9.96105 31.6121 10.6875C31.6121 11.4139 31.8932 12.1121 32.3965 12.6359C32.8998 13.1597 33.5862 13.4685 34.3121 13.4976C35.0579 13.4976 35.7733 13.2013 36.3007 12.6739C36.8281 12.1464 37.1244 11.4311 37.1244 10.6853C37.1244 9.9393 36.8281 9.22403 36.3007 8.69655C35.7733 8.16915 35.0579 7.8729 34.3121 7.8729V7.8774Z" fill="white"/>
</g>
<defs>
<clipPath id="clip0_1_23">
<rect width="45" height="45" fill="white"/>
</clipPath>
</defs>
</svg>
