<svg width="30" height="30" viewBox="0 0 45 45" fill="none" xmlns="http://www.w3.org/2000/svg">
<g clip-path="url(#clip0_2_51)">
<path d="M44.9775 10.2313C44.9588 9.26587 44.8813 8.30258 44.7457 7.34662C44.5841 6.49631 44.3094 5.67145 43.929 4.894C43.0962 3.24984 41.7611 1.91389 40.1175 1.08005C39.3451 0.701388 38.5256 0.427459 37.6808 0.265514C36.7175 0.127092 35.7467 0.0481885 34.7738 0.0292515C34.362 0.0135007 33.8288 0.00675038 33.5813 0.00675038L11.4232 0C11.1757 0 10.6425 0.00675032 10.2307 0.0225011C9.26542 0.0411019 8.30213 0.118499 7.34625 0.254263C6.49598 0.41591 5.67116 0.690612 4.89375 1.07105C3.24977 1.90405 1.91393 3.23918 1.08 4.88275C0.701453 5.65524 0.427541 6.47474 0.2655 7.31962C0.126458 8.28285 0.046807 9.25373 0.0270002 10.2268C0.0135002 10.6385 0.00450021 11.1718 0.00450021 11.4193L0 33.5784C0 33.826 0.00674998 34.3592 0.0225 34.771C0.0410998 35.7364 0.118493 36.6997 0.25425 37.6556C0.415915 38.506 0.690602 39.3308 1.071 40.1083C1.90395 41.7523 3.23901 43.0883 4.8825 43.9222C5.65498 44.3007 6.47443 44.5746 7.31925 44.7367C8.28247 44.8752 9.25335 44.9541 10.2263 44.973C10.638 44.9888 11.1713 44.9955 11.4188 44.9955L33.5768 45C33.8243 45 34.3575 44.9933 34.7693 44.9775C35.7346 44.9588 36.6979 44.8814 37.6538 44.7457C38.504 44.584 39.3288 44.3093 40.1062 43.9289C41.7511 43.0963 43.0877 41.7612 43.9222 40.1173C44.3008 39.3448 44.5747 38.5253 44.7367 37.6804C44.8759 36.7172 44.9555 35.7463 44.9752 34.7732C44.9887 34.3615 44.9978 33.8282 44.9978 33.5807L45 11.4239C45 11.1763 44.9933 10.643 44.9775 10.2313ZM22.9882 38.1551H22.9815C20.3033 38.1546 17.6677 37.4831 15.3157 36.2021L6.81075 38.4319L9.08775 30.1222C7.32477 27.0628 6.62034 23.5072 7.08367 20.0066C7.54702 16.5061 9.15225 13.2562 11.6504 10.7608C14.1487 8.26538 17.4003 6.66398 20.9012 6.20479C24.4021 5.74559 27.9568 6.45429 31.014 8.22097C34.0712 9.98768 36.4601 12.7137 37.8104 15.9763C39.1608 19.2391 39.397 22.8561 38.4826 26.2667C37.5682 29.6774 35.5541 32.691 32.7528 34.8404C29.9514 36.9898 26.5192 38.155 22.9882 38.1551Z" fill="white"/>
<path d="M22.9955 8.77755C20.613 8.77687 18.2738 9.41452 16.2211 10.6242C14.1684 11.8339 12.4773 13.5715 11.3237 15.6562C10.1699 17.7409 9.5958 20.0966 9.6609 22.4784C9.72593 24.8602 10.4279 27.181 11.6938 29.1996L12.011 29.7036L10.6633 34.6224L15.71 33.2993L16.196 33.5873C18.2505 34.8041 20.5943 35.446 22.982 35.4459H22.9888C26.5253 35.4465 29.9173 34.0421 32.4185 31.5417C34.9196 29.0413 36.3251 25.6496 36.3257 22.1129C36.3263 18.5762 34.922 15.184 32.4216 12.6827C29.9213 10.1815 26.5298 8.7759 22.9933 8.7753L22.9955 8.77755ZM30.8345 27.836C30.5396 28.3231 30.1471 28.7439 29.6816 29.0719C29.2162 29.3998 28.688 29.628 28.13 29.7418C27.2877 29.8864 26.4233 29.8324 25.6055 29.5843C24.83 29.3427 24.0677 29.0602 23.3218 28.7383C20.5537 27.3491 18.1943 25.264 16.475 22.6878C15.5372 21.4951 14.9679 20.0546 14.837 18.5431C14.8262 17.9191 14.9455 17.2998 15.1872 16.7245C15.4289 16.1492 15.7878 15.6306 16.241 15.2017C16.375 15.0488 16.5391 14.9254 16.723 14.839C16.9069 14.7527 17.1067 14.7053 17.3098 14.6998C17.5753 14.6998 17.843 14.6998 18.077 14.7133C18.3245 14.7246 18.653 14.6188 18.977 15.4019C19.3145 16.2029 20.1155 18.1763 20.2145 18.3766C20.2781 18.4816 20.3144 18.6007 20.3204 18.7233C20.3262 18.8458 20.3015 18.968 20.2483 19.0786C20.1473 19.3193 20.0125 19.5443 19.8478 19.7469C19.6453 19.9809 19.427 20.2689 19.247 20.4489C19.0445 20.6491 18.8375 20.8651 19.0693 21.2657C19.6712 22.2964 20.4227 23.2321 21.299 24.0424C22.25 24.8878 23.3411 25.5609 24.5233 26.0314C24.9238 26.2339 25.1578 26.1979 25.3918 25.9302C25.6258 25.6624 26.393 24.7601 26.6608 24.3596C26.9285 23.9591 27.194 24.0266 27.5608 24.1594C27.9275 24.2921 29.9008 25.2619 30.3013 25.4644C30.7018 25.6669 30.9695 25.7637 31.0685 25.9302C31.1783 26.5747 31.097 27.2372 30.8345 27.836Z" fill="white"/>
</g>
<defs>
<clipPath id="clip0_2_51">
<rect width="45" height="45" fill="white"/>
</clipPath>
</defs>
</svg>
